<!-- <?xml version="1.0" standalone="no"?><svg xmlns="http://www.w3.org/2000/svg" viewBox="0 0 1440 320"><path fill="#00cba9" fill-opacity="1" d="M0,64L80,64C160,64,320,64,480,101.3C640,139,800,213,960,240C1120,267,1280,245,1360,234.7L1440,224L1440,320L1360,320C1280,320,1120,320,960,320C800,320,640,320,480,320C320,320,160,320,80,320L0,320Z"></path></svg> -->
<!-- <svg width="100%" height="100%" id="svg" viewBox="0 0 1440 600" xmlns="http://www.w3.org/2000/svg" class="transition duration-300 ease-in-out delay-150"><defs><linearGradient id="gradient" x1="0%" y1="50%" x2="100%" y2="50%"><stop offset="5%" stop-color="#ff6900"></stop><stop offset="95%" stop-color="#7bdcb5"></stop></linearGradient></defs><path d="M 0,600 C 0,600 0,300 0,300 C 101.65550239234452,356.0287081339713 203.31100478468903,412.0574162679426 303,393 C 402.68899521531097,373.9425837320574 500.4114832535885,279.799043062201 580,245 C 659.5885167464115,210.20095693779902 721.043062200957,234.74641148325355 815,261 C 908.956937799043,287.25358851674645 1035.4162679425838,315.2153110047847 1145,322 C 1254.5837320574162,328.7846889952153 1347.2918660287082,314.3923444976076 1440,300 C 1440,300 1440,600 1440,600 Z" stroke="none" stroke-width="0" fill="url(#gradient)" fill-opacity="1" class="transition-all duration-300 ease-in-out delay-150 path-0"></path></svg> -->
<svg width="100%" height="100%" id="svg" viewBox="0 0 1440 400" xmlns="http://www.w3.org/2000/svg" class="transition duration-300 ease-in-out delay-150"><defs><linearGradient id="gradient" x1="0%" y1="50%" x2="100%" y2="50%"><stop offset="5%" stop-color="#ff6900"></stop><stop offset="95%" stop-color="#eb144c"></stop></linearGradient></defs><path d="M 0,400 C 0,400 0,200 0,200 C 37.755136268343804,167.45867554568997 75.51027253668761,134.91735109137994 131,153 C 186.4897274633124,171.08264890862006 259.7140461215933,239.78927118017018 317,238 C 374.2859538784067,236.21072881982982 415.63354297693917,163.9255641879393 463,148 C 510.36645702306083,132.0744358120607 563.7517819706499,172.50847206807254 619,174 C 674.2482180293501,175.49152793192746 731.3593291404612,138.0405475397706 781,130 C 830.6406708595388,121.95945246022937 872.810901467505,143.32933777284498 930,172 C 987.189098532495,200.67066222715502 1059.397064989518,236.64210136884947 1119,248 C 1178.602935010482,259.35789863115053 1225.6008385744233,246.10225675175732 1277,234 C 1328.3991614255767,221.89774324824268 1384.1995807127882,210.94887162412135 1440,200 C 1440,200 1440,400 1440,400 Z" stroke="none" stroke-width="0" fill="url(#gradient)" fill-opacity="1" class="transition-all duration-300 ease-in-out delay-150 path-0"></path></svg>